# xmcd
#
# Track frame offsets: 
#        150
#        17270
#        35227
#        55222
#        74105
#        90895
#        111587
#        134485
#        154765
#        170077
#        188027
#
# Disc length: 2674 seconds
#
# Revision: 3
# Processed by: cddbd v1.5.2PL0 Copyright (c) Steve Scherf et al.
# Submitted via: ExactAudioCopy v1.3
#
DISCID=9a0a700b
DTITLE=Various Artist - Trippin'
DYEAR=1999
DGENRE=Soundtrack
TTITLE0=RX Lord and DJ Fury - Da Bomb (Drop Mix)
TTITLE1=Brownstone - Party Over Here
TTITLE2=The Tonyies - We can make it
TTITLE3=Charli Baltimore - Everybody Wanna Know
TTITLE4=TQ - Come See Me
TTITLE5=Men Of Vizion - Break Me Off
TTITLE6=Thinkin - Thinkin'
TTITLE7=No Authority - Girlfriend
TTITLE8=The Mint Squad - M.I.N.T.
TTITLE9=7 Mile - After (Remix)
TTITLE10=Michel Colombier - Greg and Cinny
EXTD=YEAR: 1999
EXTT0=
EXTT1=
EXTT2=
EXTT3=
EXTT4=
EXTT5=
EXTT6=
EXTT7=
EXTT8=
EXTT9=
EXTT10=
PLAYORDER=
